<svg xmlns="http://www.w3.org/2000/svg" width="800" height="450" viewBox="0 0 800 450">
  <rect width="800" height="450" fill="#f8fafc" />
  <rect x="100" y="50" width="600" height="350" rx="8" fill="white" stroke="#e2e8f0" stroke-width="2" />
  <rect x="130" y="80" width="200" height="30" rx="4" fill="#2563eb" opacity="0.1" />
  <rect x="130" y="130" width="540" height="1" fill="#e2e8f0" />
  <rect x="130" y="150" width="540" height="20" rx="4" fill="#f1f5f9" />
  <rect x="130" y="180" width="540" height="20" rx="4" fill="#f1f5f9" />
  <rect x="130" y="210" width="400" height="20" rx="4" fill="#f1f5f9" />
  <rect x="130" y="260" width="200" height="30" rx="4" fill="#2563eb" opacity="0.1" />
  <rect x="130" y="310" width="540" height="1" fill="#e2e8f0" />
  <rect x="130" y="330" width="120" height="40" rx="4" fill="#2563eb" />
  <text x="190" y="357" font-family="Arial" font-size="14" fill="white" text-anchor="middle">Summarize</text>
  <circle cx="650" cy="90" r="20" fill="#2563eb" opacity="0.1" />
  <path d="M650 80 L650 100 M640 90 L660 90" stroke="#2563eb" stroke-width="2" />
</svg>
